# xmcd
#
# Track frame offsets:
#	150
#	25609
#	46403
#	69676
#	88836
#	113435
#	135808
#	159929
#	193868
#	212159
#	232889
#	257183
#	270164
#
# Disc length: 3818 seconds
#
# Revision: 1
# Processed by: cddbd v1.5.2PL0 Copyright (c) Steve Scherf et al.
# Submitted via: audiograbber 1.83.01
#
DISCID=a30ee80d
DTITLE=Point Blank Blues Band - No 7
DYEAR=2006
DGENRE=Blues
TTITLE0=Prologue/Dinosaurs Blues
TTITLE1=21st Century Blues
TTITLE2=Dreaming Blues
TTITLE3=Flipping Out The Blues
TTITLE4=Long Distant Call
TTITLE5=I'll Be Home Blues
TTITLE6=Seven Blues
TTITLE7=I'm Damn Good Blues
TTITLE8=Cripple Blues
TTITLE9=Dog Gone Blues
TTITLE10=Flame Burning Blues
TTITLE11=My Friend And I
TTITLE12=Dedicated
EXTD=
EXTT0=
EXTT1=
EXTT2=
EXTT3=
EXTT4=
EXTT5=
EXTT6=
EXTT7=
EXTT8=
EXTT9=
EXTT10=
EXTT11=
EXTT12=
PLAYORDER=
